<?xml version="1.0" encoding="UTF-8" standalone="no"?>
<!DOCTYPE svg PUBLIC "-//W3C//DTD SVG 1.1//EN"
 "http://www.w3.org/Graphics/SVG/1.1/DTD/svg11.dtd">
<!-- Generated by graphviz version 2.40.1 (20161225.0304)
 -->
<!-- Title: G Pages: 1 -->
<svg width="1085pt" height="569pt"
 viewBox="0.00 0.00 1085.00 569.00" xmlns="http://www.w3.org/2000/svg" xmlns:xlink="http://www.w3.org/1999/xlink">
<g id="graph0" class="graph" transform="scale(1 1) rotate(0) translate(4 565)">
<title>G</title>
<polygon fill="#ffffff" stroke="transparent" points="-4,4 -4,-565 1081,-565 1081,4 -4,4"/>
<g id="clust1" class="cluster">
<title>cluster_root</title>
<g id="a_clust1"><a xlink:title="eventq_index=0&#10;full_system=false&#10;sim_quantum=0&#10;time_sync_enable=false&#10;time_sync_period=100000000000&#10;time_sync_spin_threshold=100000000">
<path fill="#bab6ae" stroke="#000000" d="M20,-8C20,-8 1057,-8 1057,-8 1063,-8 1069,-14 1069,-20 1069,-20 1069,-541 1069,-541 1069,-547 1063,-553 1057,-553 1057,-553 20,-553 20,-553 14,-553 8,-547 8,-541 8,-541 8,-20 8,-20 8,-14 14,-8 20,-8"/>
<text text-anchor="middle" x="538.5" y="-537.8" font-family="Arial" font-size="14.00" fill="#000000">root </text>
<text text-anchor="middle" x="538.5" y="-522.8" font-family="Arial" font-size="14.00" fill="#000000">: Root</text>
</a>
</g>
</g>
<g id="clust2" class="cluster">
<title>cluster_system</title>
<g id="a_clust2"><a xlink:title="byte_order=little&#10;cache_line_size=64&#10;eventq_index=0&#10;exit_on_work_items=false&#10;init_param=0&#10;kvm_vm=Null&#10;m5ops_base=4294901760&#10;mem_mode=atomic&#10;mem_ranges=0:2147483648&#10;memories=system.mem_ctrls.dram&#10;mmap_using_noreserve=false&#10;multi_thread=false&#10;&#10;um_work_ids=16&#10;&#13;eadfile=&#10;&#13;edirect_paths=system.redirect_paths0 system.redirect_paths1 system.redirect_paths2&#10;shadow_rom_ranges=&#10;shared_backstore=&#10;symbolfile=&#10;thermal_components=&#10;thermal_model=Null&#10;work_begin_ckpt_count=0&#10;work_begin_cpu_id_exit=&#45;1&#10;work_begin_exit_count=0&#10;work_cpus_ckpt_count=0&#10;work_end_ckpt_count=0&#10;work_end_exit_count=0&#10;work_item_id=&#45;1&#10;workload=system.workload">
<path fill="#e4e7eb" stroke="#000000" d="M28,-16C28,-16 1049,-16 1049,-16 1055,-16 1061,-22 1061,-28 1061,-28 1061,-495 1061,-495 1061,-501 1055,-507 1049,-507 1049,-507 28,-507 28,-507 22,-507 16,-501 16,-495 16,-495 16,-28 16,-28 16,-22 22,-16 28,-16"/>
<text text-anchor="middle" x="538.5" y="-491.8" font-family="Arial" font-size="14.00" fill="#000000">system </text>
<text text-anchor="middle" x="538.5" y="-476.8" font-family="Arial" font-size="14.00" fill="#000000">: System</text>
</a>
</g>
</g>
<g id="clust4" class="cluster">
<title>cluster_system_cpu</title>
<g id="a_clust4"><a xlink:title="branchPred=Null&#10;checker=Null&#10;clk_domain=system.cpu_clk_domain&#10;cpu_id=0&#10;do_checkpoint_insts=true&#10;do_statistics_insts=true&#10;eventq_index=0&#10;function_trace=false&#10;function_trace_start=0&#10;interrupts=system.cpu.interrupts&#10;isa=system.cpu.isa&#10;max_insts_all_threads=0&#10;max_insts_any_thread=0&#10;mmu=system.cpu.mmu&#10;&#10;umThreads=1&#10;power_gating_on_idle=false&#10;power_model=&#10;power_state=system.cpu.power_state&#10;progress_interval=0&#10;pwr_gating_latency=300&#10;simpoint_start_insts=&#10;simulate_data_stalls=false&#10;simulate_inst_stalls=false&#10;socket_id=0&#10;switched_out=false&#10;syscallRetryLatency=10000&#10;system=system&#10;tracer=system.cpu.tracer&#10;width=1&#10;workload=system.cpu.workload">
<path fill="#bbc6d9" stroke="#000000" d="M36,-24C36,-24 946,-24 946,-24 952,-24 958,-30 958,-36 958,-36 958,-265 958,-265 958,-271 952,-277 946,-277 946,-277 36,-277 36,-277 30,-277 24,-271 24,-265 24,-265 24,-36 24,-36 24,-30 30,-24 36,-24"/>
<text text-anchor="middle" x="491" y="-261.8" font-family="Arial" font-size="14.00" fill="#000000">cpu </text>
<text text-anchor="middle" x="491" y="-246.8" font-family="Arial" font-size="14.00" fill="#000000">: AtomicSimpleCPU</text>
</a>
</g>
</g>
<g id="clust5" class="cluster">
<title>cluster_system_cpu_mmu</title>
<g id="a_clust5"><a xlink:title="dtb=system.cpu.mmu.dtb&#10;eventq_index=0&#10;itb=system.cpu.mmu.itb">
<path fill="#bab6ae" stroke="#000000" d="M584,-32C584,-32 938,-32 938,-32 944,-32 950,-38 950,-44 950,-44 950,-219 950,-219 950,-225 944,-231 938,-231 938,-231 584,-231 584,-231 578,-231 572,-225 572,-219 572,-219 572,-44 572,-44 572,-38 578,-32 584,-32"/>
<text text-anchor="middle" x="761" y="-215.8" font-family="Arial" font-size="14.00" fill="#000000">mmu </text>
<text text-anchor="middle" x="761" y="-200.8" font-family="Arial" font-size="14.00" fill="#000000">: X86MMU</text>
</a>
</g>
</g>
<g id="clust6" class="cluster">
<title>cluster_system_cpu_mmu_itb</title>
<g id="a_clust6"><a xlink:title="eventq_index=0&#10;size=64&#10;system=system&#10;walker=system.cpu.mmu.itb.walker">
<path fill="#9f9c95" stroke="#000000" d="M777,-40C777,-40 930,-40 930,-40 936,-40 942,-46 942,-52 942,-52 942,-173 942,-173 942,-179 936,-185 930,-185 930,-185 777,-185 777,-185 771,-185 765,-179 765,-173 765,-173 765,-52 765,-52 765,-46 771,-40 777,-40"/>
<text text-anchor="middle" x="853.5" y="-169.8" font-family="Arial" font-size="14.00" fill="#000000">itb </text>
<text text-anchor="middle" x="853.5" y="-154.8" font-family="Arial" font-size="14.00" fill="#000000">: X86TLB</text>
</a>
</g>
</g>
<g id="clust7" class="cluster">
<title>cluster_system_cpu_mmu_itb_walker</title>
<g id="a_clust7"><a xlink:title="clk_domain=system.cpu_clk_domain&#10;eventq_index=0&#10;&#10;um_squash_per_cycle=4&#10;power_model=&#10;power_state=system.cpu.mmu.itb.walker.power_state&#10;system=system">
<path fill="#84827c" stroke="#000000" d="M785,-48C785,-48 922,-48 922,-48 928,-48 934,-54 934,-60 934,-60 934,-127 934,-127 934,-133 928,-139 922,-139 922,-139 785,-139 785,-139 779,-139 773,-133 773,-127 773,-127 773,-60 773,-60 773,-54 779,-48 785,-48"/>
<text text-anchor="middle" x="853.5" y="-123.8" font-family="Arial" font-size="14.00" fill="#000000">walker </text>
<text text-anchor="middle" x="853.5" y="-108.8" font-family="Arial" font-size="14.00" fill="#000000">: X86PagetableWalker</text>
</a>
</g>
</g>
<g id="clust9" class="cluster">
<title>cluster_system_cpu_mmu_dtb</title>
<g id="a_clust9"><a xlink:title="eventq_index=0&#10;size=64&#10;system=system&#10;walker=system.cpu.mmu.dtb.walker">
<path fill="#9f9c95" stroke="#000000" d="M592,-40C592,-40 745,-40 745,-40 751,-40 757,-46 757,-52 757,-52 757,-173 757,-173 757,-179 751,-185 745,-185 745,-185 592,-185 592,-185 586,-185 580,-179 580,-173 580,-173 580,-52 580,-52 580,-46 586,-40 592,-40"/>
<text text-anchor="middle" x="668.5" y="-169.8" font-family="Arial" font-size="14.00" fill="#000000">dtb </text>
<text text-anchor="middle" x="668.5" y="-154.8" font-family="Arial" font-size="14.00" fill="#000000">: X86TLB</text>
</a>
</g>
</g>
<g id="clust10" class="cluster">
<title>cluster_system_cpu_mmu_dtb_walker</title>
<g id="a_clust10"><a xlink:title="clk_domain=system.cpu_clk_domain&#10;eventq_index=0&#10;&#10;um_squash_per_cycle=4&#10;power_model=&#10;power_state=system.cpu.mmu.dtb.walker.power_state&#10;system=system">
<path fill="#84827c" stroke="#000000" d="M600,-48C600,-48 737,-48 737,-48 743,-48 749,-54 749,-60 749,-60 749,-127 749,-127 749,-133 743,-139 737,-139 737,-139 600,-139 600,-139 594,-139 588,-133 588,-127 588,-127 588,-60 588,-60 588,-54 594,-48 600,-48"/>
<text text-anchor="middle" x="668.5" y="-123.8" font-family="Arial" font-size="14.00" fill="#000000">walker </text>
<text text-anchor="middle" x="668.5" y="-108.8" font-family="Arial" font-size="14.00" fill="#000000">: X86PagetableWalker</text>
</a>
</g>
</g>
<g id="clust16" class="cluster">
<title>cluster_system_cpu_interrupts</title>
<g id="a_clust16"><a xlink:title="clk_domain=system.cpu.interrupts.clk_domain&#10;eventq_index=0&#10;int_latency=1000&#10;pio_latency=100000&#10;system=system">
<path fill="#bab6ae" stroke="#000000" d="M262,-48C262,-48 552,-48 552,-48 558,-48 564,-54 564,-60 564,-60 564,-127 564,-127 564,-133 558,-139 552,-139 552,-139 262,-139 262,-139 256,-139 250,-133 250,-127 250,-127 250,-60 250,-60 250,-54 256,-48 262,-48"/>
<text text-anchor="middle" x="407" y="-123.8" font-family="Arial" font-size="14.00" fill="#000000">interrupts </text>
<text text-anchor="middle" x="407" y="-108.8" font-family="Arial" font-size="14.00" fill="#000000">: X86LocalApic</text>
</a>
</g>
</g>
<g id="clust22" class="cluster">
<title>cluster_system_membus</title>
<g id="a_clust22"><a xlink:title="clk_domain=system.clk_domain&#10;eventq_index=0&#10;forward_latency=4&#10;frontend_latency=3&#10;header_latency=1&#10;max_outstanding_snoops=512&#10;max_routing_table_size=512&#10;point_of_coherency=true&#10;point_of_unification=true&#10;power_model=&#10;power_state=system.membus.power_state&#10;&#13;esponse_latency=2&#10;snoop_filter=system.membus.snoop_filter&#10;snoop_response_latency=4&#10;system=system&#10;use_default_range=false&#10;width=16">
<path fill="#6f798c" stroke="#000000" d="M282,-285C282,-285 534,-285 534,-285 540,-285 546,-291 546,-297 546,-297 546,-364 546,-364 546,-370 540,-376 534,-376 534,-376 282,-376 282,-376 276,-376 270,-370 270,-364 270,-364 270,-297 270,-297 270,-291 276,-285 282,-285"/>
<text text-anchor="middle" x="408" y="-360.8" font-family="Arial" font-size="14.00" fill="#000000">membus </text>
<text text-anchor="middle" x="408" y="-345.8" font-family="Arial" font-size="14.00" fill="#000000">: SystemXBar</text>
</a>
</g>
</g>
<g id="clust25" class="cluster">
<title>cluster_system_mem_ctrls</title>
<g id="a_clust25"><a xlink:title="clk_domain=system.clk_domain&#10;command_window=10000&#10;dram=system.mem_ctrls.dram&#10;eventq_index=0&#10;mem_sched_policy=frfcfs&#10;min_writes_per_switch=16&#10;&#10;vm=Null&#10;power_model=&#10;power_state=system.mem_ctrls.power_state&#10;qos_policy=Null&#10;qos_priorities=1&#10;qos_priority_escalation=false&#10;qos_q_policy=fifo&#10;qos_requestors= &#160;&#160;&#160;&#160;&#160;&#160;&#160;&#160;&#160;&#160;&#160;&#160;&#160;&#160;&#10;qos_syncro_scheduler=false&#10;qos_turnaround_policy=Null&#10;static_backend_latency=10000&#10;static_frontend_latency=10000&#10;system=system&#10;write_high_thresh_perc=85&#10;write_low_thresh_perc=50">
<path fill="#bab6ae" stroke="#000000" d="M978,-48C978,-48 1041,-48 1041,-48 1047,-48 1053,-54 1053,-60 1053,-60 1053,-127 1053,-127 1053,-133 1047,-139 1041,-139 1041,-139 978,-139 978,-139 972,-139 966,-133 966,-127 966,-127 966,-60 966,-60 966,-54 972,-48 978,-48"/>
<text text-anchor="middle" x="1009.5" y="-123.8" font-family="Arial" font-size="14.00" fill="#000000">mem_ctrls </text>
<text text-anchor="middle" x="1009.5" y="-108.8" font-family="Arial" font-size="14.00" fill="#000000">: MemCtrl</text>
</a>
</g>
</g>
<!-- system_system_port -->
<g id="node1" class="node">
<title>system_system_port</title>
<path fill="#b6b8bc" stroke="#000000" d="M300,-424.5C300,-424.5 372,-424.5 372,-424.5 378,-424.5 384,-430.5 384,-436.5 384,-436.5 384,-448.5 384,-448.5 384,-454.5 378,-460.5 372,-460.5 372,-460.5 300,-460.5 300,-460.5 294,-460.5 288,-454.5 288,-448.5 288,-448.5 288,-436.5 288,-436.5 288,-430.5 294,-424.5 300,-424.5"/>
<text text-anchor="middle" x="336" y="-438.8" font-family="Arial" font-size="14.00" fill="#000000">system_port</text>
</g>
<!-- system_membus_cpu_side_ports -->
<g id="node9" class="node">
<title>system_membus_cpu_side_ports</title>
<path fill="#586070" stroke="#000000" d="M290,-293.5C290,-293.5 382,-293.5 382,-293.5 388,-293.5 394,-299.5 394,-305.5 394,-305.5 394,-317.5 394,-317.5 394,-323.5 388,-329.5 382,-329.5 382,-329.5 290,-329.5 290,-329.5 284,-329.5 278,-323.5 278,-317.5 278,-317.5 278,-305.5 278,-305.5 278,-299.5 284,-293.5 290,-293.5"/>
<text text-anchor="middle" x="336" y="-307.8" font-family="Arial" font-size="14.00" fill="#000000">cpu_side_ports</text>
</g>
<!-- system_system_port&#45;&gt;system_membus_cpu_side_ports -->
<g id="edge1" class="edge">
<title>system_system_port&#45;&gt;system_membus_cpu_side_ports</title>
<path fill="none" stroke="#000000" d="M336,-424.285C336,-402.3856 336,-365.3861 336,-339.7663"/>
<polygon fill="#000000" stroke="#000000" points="339.5001,-339.5603 336,-329.5603 332.5001,-339.5603 339.5001,-339.5603"/>
</g>
<!-- system_cpu_icache_port -->
<g id="node2" class="node">
<title>system_cpu_icache_port</title>
<path fill="#959ead" stroke="#000000" d="M160,-56.5C160,-56.5 228,-56.5 228,-56.5 234,-56.5 240,-62.5 240,-68.5 240,-68.5 240,-80.5 240,-80.5 240,-86.5 234,-92.5 228,-92.5 228,-92.5 160,-92.5 160,-92.5 154,-92.5 148,-86.5 148,-80.5 148,-80.5 148,-68.5 148,-68.5 148,-62.5 154,-56.5 160,-56.5"/>
<text text-anchor="middle" x="194" y="-70.8" font-family="Arial" font-size="14.00" fill="#000000">icache_port</text>
</g>
<!-- system_cpu_dcache_port -->
<g id="node3" class="node">
<title>system_cpu_dcache_port</title>
<path fill="#959ead" stroke="#000000" d="M44,-56.5C44,-56.5 118,-56.5 118,-56.5 124,-56.5 130,-62.5 130,-68.5 130,-68.5 130,-80.5 130,-80.5 130,-86.5 124,-92.5 118,-92.5 118,-92.5 44,-92.5 44,-92.5 38,-92.5 32,-86.5 32,-80.5 32,-80.5 32,-68.5 32,-68.5 32,-62.5 38,-56.5 44,-56.5"/>
<text text-anchor="middle" x="81" y="-70.8" font-family="Arial" font-size="14.00" fill="#000000">dcache_port</text>
</g>
<!-- system_cpu_mmu_itb_walker_port -->
<g id="node4" class="node">
<title>system_cpu_mmu_itb_walker_port</title>
<path fill="#6a6863" stroke="#000000" d="M793,-56.5C793,-56.5 823,-56.5 823,-56.5 829,-56.5 835,-62.5 835,-68.5 835,-68.5 835,-80.5 835,-80.5 835,-86.5 829,-92.5 823,-92.5 823,-92.5 793,-92.5 793,-92.5 787,-92.5 781,-86.5 781,-80.5 781,-80.5 781,-68.5 781,-68.5 781,-62.5 787,-56.5 793,-56.5"/>
<text text-anchor="middle" x="808" y="-70.8" font-family="Arial" font-size="14.00" fill="#000000">port</text>
</g>
<!-- system_cpu_mmu_dtb_walker_port -->
<g id="node5" class="node">
<title>system_cpu_mmu_dtb_walker_port</title>
<path fill="#6a6863" stroke="#000000" d="M608,-56.5C608,-56.5 638,-56.5 638,-56.5 644,-56.5 650,-62.5 650,-68.5 650,-68.5 650,-80.5 650,-80.5 650,-86.5 644,-92.5 638,-92.5 638,-92.5 608,-92.5 608,-92.5 602,-92.5 596,-86.5 596,-80.5 596,-80.5 596,-68.5 596,-68.5 596,-62.5 602,-56.5 608,-56.5"/>
<text text-anchor="middle" x="623" y="-70.8" font-family="Arial" font-size="14.00" fill="#000000">port</text>
</g>
<!-- system_cpu_interrupts_int_requestor -->
<g id="node6" class="node">
<title>system_cpu_interrupts_int_requestor</title>
<path fill="#94918b" stroke="#000000" d="M270.5,-56.5C270.5,-56.5 347.5,-56.5 347.5,-56.5 353.5,-56.5 359.5,-62.5 359.5,-68.5 359.5,-68.5 359.5,-80.5 359.5,-80.5 359.5,-86.5 353.5,-92.5 347.5,-92.5 347.5,-92.5 270.5,-92.5 270.5,-92.5 264.5,-92.5 258.5,-86.5 258.5,-80.5 258.5,-80.5 258.5,-68.5 258.5,-68.5 258.5,-62.5 264.5,-56.5 270.5,-56.5"/>
<text text-anchor="middle" x="309" y="-70.8" font-family="Arial" font-size="14.00" fill="#000000">int_requestor</text>
</g>
<!-- system_cpu_interrupts_int_responder -->
<g id="node7" class="node">
<title>system_cpu_interrupts_int_responder</title>
<path fill="#94918b" stroke="#000000" d="M462,-56.5C462,-56.5 544,-56.5 544,-56.5 550,-56.5 556,-62.5 556,-68.5 556,-68.5 556,-80.5 556,-80.5 556,-86.5 550,-92.5 544,-92.5 544,-92.5 462,-92.5 462,-92.5 456,-92.5 450,-86.5 450,-80.5 450,-80.5 450,-68.5 450,-68.5 450,-62.5 456,-56.5 462,-56.5"/>
<text text-anchor="middle" x="503" y="-70.8" font-family="Arial" font-size="14.00" fill="#000000">int_responder</text>
</g>
<!-- system_cpu_interrupts_pio -->
<g id="node8" class="node">
<title>system_cpu_interrupts_pio</title>
<path fill="#94918b" stroke="#000000" d="M390,-56.5C390,-56.5 420,-56.5 420,-56.5 426,-56.5 432,-62.5 432,-68.5 432,-68.5 432,-80.5 432,-80.5 432,-86.5 426,-92.5 420,-92.5 420,-92.5 390,-92.5 390,-92.5 384,-92.5 378,-86.5 378,-80.5 378,-80.5 378,-68.5 378,-68.5 378,-62.5 384,-56.5 390,-56.5"/>
<text text-anchor="middle" x="405" y="-70.8" font-family="Arial" font-size="14.00" fill="#000000">pio</text>
</g>
<!-- system_membus_cpu_side_ports&#45;&gt;system_cpu_icache_port -->
<g id="edge2" class="edge">
<title>system_membus_cpu_side_ports&#45;&gt;system_cpu_icache_port</title>
<path fill="none" stroke="#000000" d="M268.3689,-293.994C259.9973,-289.5433 252.2146,-283.9717 246,-277 198.1781,-223.3526 193.224,-131.5544 193.4339,-92.7121"/>
<polygon fill="#000000" stroke="#000000" points="267.1033,-297.2675 277.6378,-298.3967 270.1067,-290.9446 267.1033,-297.2675"/>
</g>
<!-- system_membus_cpu_side_ports&#45;&gt;system_cpu_dcache_port -->
<g id="edge3" class="edge">
<title>system_membus_cpu_side_ports&#45;&gt;system_cpu_dcache_port</title>
<path fill="none" stroke="#000000" d="M267.5729,-307.163C218.4381,-302.6695 157.716,-293.8373 139,-277 84.7614,-228.2057 79.8351,-132.4829 80.3026,-92.607"/>
<polygon fill="#000000" stroke="#000000" points="267.2797,-310.6506 277.5456,-308.0312 267.8868,-303.677 267.2797,-310.6506"/>
</g>
<!-- system_membus_cpu_side_ports&#45;&gt;system_cpu_mmu_itb_walker_port -->
<g id="edge4" class="edge">
<title>system_membus_cpu_side_ports&#45;&gt;system_cpu_mmu_itb_walker_port</title>
<path fill="none" stroke="#000000" d="M385.2103,-290.0344C391.44,-288.0002 397.8032,-286.2385 404,-285 423.0179,-281.1991 737.7296,-288.9558 753,-277 810.5116,-231.9717 811.674,-133.2611 809.475,-92.5771"/>
<polygon fill="#000000" stroke="#000000" points="383.849,-286.8028 375.5739,-293.419 386.1688,-293.4073 383.849,-286.8028"/>
</g>
<!-- system_membus_cpu_side_ports&#45;&gt;system_cpu_mmu_dtb_walker_port -->
<g id="edge5" class="edge">
<title>system_membus_cpu_side_ports&#45;&gt;system_cpu_mmu_dtb_walker_port</title>
<path fill="none" stroke="#000000" d="M385.4882,-290.1086C391.6337,-288.0814 397.901,-286.301 404,-285 421.8424,-281.1938 553.7816,-288.4314 568,-277 624.7834,-231.347 626.4121,-133.4306 624.4074,-92.7768"/>
<polygon fill="#000000" stroke="#000000" points="384.2397,-286.8375 375.9729,-293.464 386.5677,-293.4391 384.2397,-286.8375"/>
</g>
<!-- system_membus_cpu_side_ports&#45;&gt;system_cpu_interrupts_int_requestor -->
<g id="edge6" class="edge">
<title>system_membus_cpu_side_ports&#45;&gt;system_cpu_interrupts_int_requestor</title>
<path fill="none" stroke="#000000" d="M332.7917,-283.3379C327.1885,-234.1544 315.7699,-133.9246 311.0809,-92.7655"/>
<polygon fill="#000000" stroke="#000000" points="329.3167,-283.757 333.9262,-293.2965 336.2717,-282.9646 329.3167,-283.757"/>
</g>
<!-- system_membus_mem_side_ports -->
<g id="node10" class="node">
<title>system_membus_mem_side_ports</title>
<path fill="#586070" stroke="#000000" d="M424.5,-293.5C424.5,-293.5 525.5,-293.5 525.5,-293.5 531.5,-293.5 537.5,-299.5 537.5,-305.5 537.5,-305.5 537.5,-317.5 537.5,-317.5 537.5,-323.5 531.5,-329.5 525.5,-329.5 525.5,-329.5 424.5,-329.5 424.5,-329.5 418.5,-329.5 412.5,-323.5 412.5,-317.5 412.5,-317.5 412.5,-305.5 412.5,-305.5 412.5,-299.5 418.5,-293.5 424.5,-293.5"/>
<text text-anchor="middle" x="475" y="-307.8" font-family="Arial" font-size="14.00" fill="#000000">mem_side_ports</text>
</g>
<!-- system_membus_mem_side_ports&#45;&gt;system_cpu_interrupts_int_responder -->
<g id="edge8" class="edge">
<title>system_membus_mem_side_ports&#45;&gt;system_cpu_interrupts_int_responder</title>
<path fill="none" stroke="#000000" d="M477.1506,-293.2965C482.0063,-252.1969 493.8473,-151.9711 499.6641,-102.7363"/>
<polygon fill="#000000" stroke="#000000" points="503.1445,-103.1071 500.8421,-92.7655 496.1929,-102.2857 503.1445,-103.1071"/>
</g>
<!-- system_membus_mem_side_ports&#45;&gt;system_cpu_interrupts_pio -->
<g id="edge7" class="edge">
<title>system_membus_mem_side_ports&#45;&gt;system_cpu_interrupts_pio</title>
<path fill="none" stroke="#000000" d="M453.2656,-293.4762C448.5674,-288.5868 444.0888,-282.9765 441,-277 411.578,-220.0719 405.7154,-143.4437 404.8398,-102.7127"/>
<polygon fill="#000000" stroke="#000000" points="408.3394,-102.6472 404.7113,-92.693 401.3399,-102.7371 408.3394,-102.6472"/>
</g>
<!-- system_mem_ctrls_port -->
<g id="node11" class="node">
<title>system_mem_ctrls_port</title>
<path fill="#94918b" stroke="#000000" d="M986,-56.5C986,-56.5 1016,-56.5 1016,-56.5 1022,-56.5 1028,-62.5 1028,-68.5 1028,-68.5 1028,-80.5 1028,-80.5 1028,-86.5 1022,-92.5 1016,-92.5 1016,-92.5 986,-92.5 986,-92.5 980,-92.5 974,-86.5 974,-80.5 974,-80.5 974,-68.5 974,-68.5 974,-62.5 980,-56.5 986,-56.5"/>
<text text-anchor="middle" x="1001" y="-70.8" font-family="Arial" font-size="14.00" fill="#000000">port</text>
</g>
<!-- system_membus_mem_side_ports&#45;&gt;system_mem_ctrls_port -->
<g id="edge9" class="edge">
<title>system_membus_mem_side_ports&#45;&gt;system_mem_ctrls_port</title>
<path fill="none" stroke="#000000" d="M537.9329,-310.6908C657.2871,-308.5979 907.401,-301.3308 938,-277 991.2464,-234.6611 1000.4499,-147.9534 1001.4491,-102.9772"/>
<polygon fill="#000000" stroke="#000000" points="1004.951,-102.7851 1001.549,-92.7514 997.9514,-102.7167 1004.951,-102.7851"/>
</g>
</g>
</svg>
