<?xml version="1.0" encoding="UTF-8" standalone="no"?>
<!DOCTYPE svg PUBLIC "-//W3C//DTD SVG 1.1//EN"
 "http://www.w3.org/Graphics/SVG/1.1/DTD/svg11.dtd">
<!-- Generated by graphviz version 2.40.1 (20161225.0304)
 -->
<!-- Title: G Pages: 1 -->
<svg width="1162pt" height="684pt"
 viewBox="0.00 0.00 1161.53 684.00" xmlns="http://www.w3.org/2000/svg" xmlns:xlink="http://www.w3.org/1999/xlink">
<g id="graph0" class="graph" transform="scale(1 1) rotate(0) translate(4 680)">
<title>G</title>
<polygon fill="#ffffff" stroke="transparent" points="-4,4 -4,-680 1157.5341,-680 1157.5341,4 -4,4"/>
<g id="clust1" class="cluster">
<title>cluster_root</title>
<g id="a_clust1"><a xlink:title="eventq_index=0&#10;full_system=false&#10;sim_quantum=0&#10;time_sync_enable=false&#10;time_sync_period=100000000000&#10;time_sync_spin_threshold=100000000">
<path fill="#bab6ae" stroke="#000000" d="M24.5341,-8C24.5341,-8 1133.5341,-8 1133.5341,-8 1139.5341,-8 1145.5341,-14 1145.5341,-20 1145.5341,-20 1145.5341,-656 1145.5341,-656 1145.5341,-662 1139.5341,-668 1133.5341,-668 1133.5341,-668 24.5341,-668 24.5341,-668 18.5341,-668 12.5341,-662 12.5341,-656 12.5341,-656 12.5341,-20 12.5341,-20 12.5341,-14 18.5341,-8 24.5341,-8"/>
<text text-anchor="middle" x="579.0341" y="-652.8" font-family="Arial" font-size="14.00" fill="#000000">root </text>
<text text-anchor="middle" x="579.0341" y="-637.8" font-family="Arial" font-size="14.00" fill="#000000">: Root</text>
</a>
</g>
</g>
<g id="clust2" class="cluster">
<title>cluster_system</title>
<g id="a_clust2"><a xlink:title="byte_order=little&#10;cache_line_size=64&#10;eventq_index=0&#10;exit_on_work_items=false&#10;init_param=0&#10;kvm_vm=Null&#10;m5ops_base=4294901760&#10;mem_mode=atomic&#10;mem_ranges=0:2147483648&#10;memories=system.mem_ctrls.dram&#10;mmap_using_noreserve=false&#10;multi_thread=false&#10;&#10;um_work_ids=16&#10;&#13;eadfile=&#10;&#13;edirect_paths=system.redirect_paths0 system.redirect_paths1 system.redirect_paths2&#10;shadow_rom_ranges=&#10;shared_backstore=&#10;symbolfile=&#10;thermal_components=&#10;thermal_model=Null&#10;work_begin_ckpt_count=0&#10;work_begin_cpu_id_exit=&#45;1&#10;work_begin_exit_count=0&#10;work_cpus_ckpt_count=0&#10;work_end_ckpt_count=0&#10;work_end_exit_count=0&#10;work_item_id=&#45;1&#10;workload=system.workload">
<path fill="#e4e7eb" stroke="#000000" d="M32.5341,-16C32.5341,-16 1125.5341,-16 1125.5341,-16 1131.5341,-16 1137.5341,-22 1137.5341,-28 1137.5341,-28 1137.5341,-610 1137.5341,-610 1137.5341,-616 1131.5341,-622 1125.5341,-622 1125.5341,-622 32.5341,-622 32.5341,-622 26.5341,-622 20.5341,-616 20.5341,-610 20.5341,-610 20.5341,-28 20.5341,-28 20.5341,-22 26.5341,-16 32.5341,-16"/>
<text text-anchor="middle" x="579.0341" y="-606.8" font-family="Arial" font-size="14.00" fill="#000000">system </text>
<text text-anchor="middle" x="579.0341" y="-591.8" font-family="Arial" font-size="14.00" fill="#000000">: System</text>
</a>
</g>
</g>
<g id="clust4" class="cluster">
<title>cluster_system_cpu</title>
<g id="a_clust4"><a xlink:title="branchPred=Null&#10;checker=Null&#10;clk_domain=system.cpu_clk_domain&#10;cpu_id=0&#10;do_checkpoint_insts=true&#10;do_statistics_insts=true&#10;eventq_index=0&#10;function_trace=false&#10;function_trace_start=0&#10;interrupts=system.cpu.interrupts&#10;isa=system.cpu.isa&#10;max_insts_all_threads=0&#10;max_insts_any_thread=0&#10;mmu=system.cpu.mmu&#10;&#10;umThreads=1&#10;power_gating_on_idle=false&#10;power_model=&#10;power_state=system.cpu.power_state&#10;progress_interval=0&#10;pwr_gating_latency=300&#10;simpoint_start_insts=&#10;simulate_data_stalls=false&#10;simulate_inst_stalls=false&#10;socket_id=0&#10;switched_out=false&#10;syscallRetryLatency=10000&#10;system=system&#10;tracer=system.cpu.tracer&#10;width=1&#10;workload=system.cpu.workload">
<path fill="#bbc6d9" stroke="#000000" d="M112.5341,-24C112.5341,-24 1022.5341,-24 1022.5341,-24 1028.5341,-24 1034.5341,-30 1034.5341,-36 1034.5341,-36 1034.5341,-380 1034.5341,-380 1034.5341,-386 1028.5341,-392 1022.5341,-392 1022.5341,-392 112.5341,-392 112.5341,-392 106.5341,-392 100.5341,-386 100.5341,-380 100.5341,-380 100.5341,-36 100.5341,-36 100.5341,-30 106.5341,-24 112.5341,-24"/>
<text text-anchor="middle" x="567.5341" y="-376.8" font-family="Arial" font-size="14.00" fill="#000000">cpu </text>
<text text-anchor="middle" x="567.5341" y="-361.8" font-family="Arial" font-size="14.00" fill="#000000">: AtomicSimpleCPU</text>
</a>
</g>
</g>
<g id="clust5" class="cluster">
<title>cluster_system_cpu_mmu</title>
<g id="a_clust5"><a xlink:title="dtb=system.cpu.mmu.dtb&#10;eventq_index=0&#10;itb=system.cpu.mmu.itb">
<path fill="#bab6ae" stroke="#000000" d="M660.5341,-147C660.5341,-147 1014.5341,-147 1014.5341,-147 1020.5341,-147 1026.5341,-153 1026.5341,-159 1026.5341,-159 1026.5341,-334 1026.5341,-334 1026.5341,-340 1020.5341,-346 1014.5341,-346 1014.5341,-346 660.5341,-346 660.5341,-346 654.5341,-346 648.5341,-340 648.5341,-334 648.5341,-334 648.5341,-159 648.5341,-159 648.5341,-153 654.5341,-147 660.5341,-147"/>
<text text-anchor="middle" x="837.5341" y="-330.8" font-family="Arial" font-size="14.00" fill="#000000">mmu </text>
<text text-anchor="middle" x="837.5341" y="-315.8" font-family="Arial" font-size="14.00" fill="#000000">: X86MMU</text>
</a>
</g>
</g>
<g id="clust6" class="cluster">
<title>cluster_system_cpu_mmu_itb</title>
<g id="a_clust6"><a xlink:title="eventq_index=0&#10;size=64&#10;system=system&#10;walker=system.cpu.mmu.itb.walker">
<path fill="#9f9c95" stroke="#000000" d="M668.5341,-155C668.5341,-155 821.5341,-155 821.5341,-155 827.5341,-155 833.5341,-161 833.5341,-167 833.5341,-167 833.5341,-288 833.5341,-288 833.5341,-294 827.5341,-300 821.5341,-300 821.5341,-300 668.5341,-300 668.5341,-300 662.5341,-300 656.5341,-294 656.5341,-288 656.5341,-288 656.5341,-167 656.5341,-167 656.5341,-161 662.5341,-155 668.5341,-155"/>
<text text-anchor="middle" x="745.0341" y="-284.8" font-family="Arial" font-size="14.00" fill="#000000">itb </text>
<text text-anchor="middle" x="745.0341" y="-269.8" font-family="Arial" font-size="14.00" fill="#000000">: X86TLB</text>
</a>
</g>
</g>
<g id="clust7" class="cluster">
<title>cluster_system_cpu_mmu_itb_walker</title>
<g id="a_clust7"><a xlink:title="clk_domain=system.cpu_clk_domain&#10;eventq_index=0&#10;&#10;um_squash_per_cycle=4&#10;power_model=&#10;power_state=system.cpu.mmu.itb.walker.power_state&#10;system=system">
<path fill="#84827c" stroke="#000000" d="M676.5341,-163C676.5341,-163 813.5341,-163 813.5341,-163 819.5341,-163 825.5341,-169 825.5341,-175 825.5341,-175 825.5341,-242 825.5341,-242 825.5341,-248 819.5341,-254 813.5341,-254 813.5341,-254 676.5341,-254 676.5341,-254 670.5341,-254 664.5341,-248 664.5341,-242 664.5341,-242 664.5341,-175 664.5341,-175 664.5341,-169 670.5341,-163 676.5341,-163"/>
<text text-anchor="middle" x="745.0341" y="-238.8" font-family="Arial" font-size="14.00" fill="#000000">walker </text>
<text text-anchor="middle" x="745.0341" y="-223.8" font-family="Arial" font-size="14.00" fill="#000000">: X86PagetableWalker</text>
</a>
</g>
</g>
<g id="clust9" class="cluster">
<title>cluster_system_cpu_mmu_dtb</title>
<g id="a_clust9"><a xlink:title="eventq_index=0&#10;size=64&#10;system=system&#10;walker=system.cpu.mmu.dtb.walker">
<path fill="#9f9c95" stroke="#000000" d="M853.5341,-155C853.5341,-155 1006.5341,-155 1006.5341,-155 1012.5341,-155 1018.5341,-161 1018.5341,-167 1018.5341,-167 1018.5341,-288 1018.5341,-288 1018.5341,-294 1012.5341,-300 1006.5341,-300 1006.5341,-300 853.5341,-300 853.5341,-300 847.5341,-300 841.5341,-294 841.5341,-288 841.5341,-288 841.5341,-167 841.5341,-167 841.5341,-161 847.5341,-155 853.5341,-155"/>
<text text-anchor="middle" x="930.0341" y="-284.8" font-family="Arial" font-size="14.00" fill="#000000">dtb </text>
<text text-anchor="middle" x="930.0341" y="-269.8" font-family="Arial" font-size="14.00" fill="#000000">: X86TLB</text>
</a>
</g>
</g>
<g id="clust10" class="cluster">
<title>cluster_system_cpu_mmu_dtb_walker</title>
<g id="a_clust10"><a xlink:title="clk_domain=system.cpu_clk_domain&#10;eventq_index=0&#10;&#10;um_squash_per_cycle=4&#10;power_model=&#10;power_state=system.cpu.mmu.dtb.walker.power_state&#10;system=system">
<path fill="#84827c" stroke="#000000" d="M861.5341,-163C861.5341,-163 998.5341,-163 998.5341,-163 1004.5341,-163 1010.5341,-169 1010.5341,-175 1010.5341,-175 1010.5341,-242 1010.5341,-242 1010.5341,-248 1004.5341,-254 998.5341,-254 998.5341,-254 861.5341,-254 861.5341,-254 855.5341,-254 849.5341,-248 849.5341,-242 849.5341,-242 849.5341,-175 849.5341,-175 849.5341,-169 855.5341,-163 861.5341,-163"/>
<text text-anchor="middle" x="930.0341" y="-238.8" font-family="Arial" font-size="14.00" fill="#000000">walker </text>
<text text-anchor="middle" x="930.0341" y="-223.8" font-family="Arial" font-size="14.00" fill="#000000">: X86PagetableWalker</text>
</a>
</g>
</g>
<g id="clust16" class="cluster">
<title>cluster_system_cpu_icache</title>
<g id="a_clust16"><a xlink:title="addr_ranges=0:18446744073709551615&#10;assoc=2&#10;clk_domain=system.cpu_clk_domain&#10;clusivity=mostly_incl&#10;compressor=Null&#10;data_latency=2&#10;demand_mshr_reserve=1&#10;eventq_index=0&#10;is_read_only=true&#10;max_miss_count=0&#10;move_contractions=true&#10;mshrs=4&#10;power_model=&#10;power_state=system.cpu.icache.power_state&#10;prefetch_on_access=false&#10;prefetch_on_pf_hit=false&#10;prefetcher=Null&#10;&#13;eplace_expansions=true&#10;&#13;eplacement_policy=system.cpu.icache.replacement_policy&#10;&#13;esponse_latency=2&#10;sequential_access=false&#10;size=524288&#10;system=system&#10;tag_latency=2&#10;tags=system.cpu.icache.tags&#10;tgts_per_mshr=20&#10;warmup_percentage=0&#10;write_allocator=Null&#10;write_buffers=8&#10;writeback_clean=true">
<path fill="#bab6ae" stroke="#000000" d="M120.5341,-32C120.5341,-32 290.5341,-32 290.5341,-32 296.5341,-32 302.5341,-38 302.5341,-44 302.5341,-44 302.5341,-111 302.5341,-111 302.5341,-117 296.5341,-123 290.5341,-123 290.5341,-123 120.5341,-123 120.5341,-123 114.5341,-123 108.5341,-117 108.5341,-111 108.5341,-111 108.5341,-44 108.5341,-44 108.5341,-38 114.5341,-32 120.5341,-32"/>
<text text-anchor="middle" x="205.5341" y="-107.8" font-family="Arial" font-size="14.00" fill="#000000">icache </text>
<text text-anchor="middle" x="205.5341" y="-92.8" font-family="Arial" font-size="14.00" fill="#000000">: L1_ICache</text>
</a>
</g>
</g>
<g id="clust22" class="cluster">
<title>cluster_system_cpu_dcache</title>
<g id="a_clust22"><a xlink:title="addr_ranges=0:18446744073709551615&#10;assoc=2&#10;clk_domain=system.cpu_clk_domain&#10;clusivity=mostly_incl&#10;compressor=Null&#10;data_latency=2&#10;demand_mshr_reserve=1&#10;eventq_index=0&#10;is_read_only=false&#10;max_miss_count=0&#10;move_contractions=true&#10;mshrs=4&#10;power_model=&#10;power_state=system.cpu.dcache.power_state&#10;prefetch_on_access=false&#10;prefetch_on_pf_hit=false&#10;prefetcher=Null&#10;&#13;eplace_expansions=true&#10;&#13;eplacement_policy=system.cpu.dcache.replacement_policy&#10;&#13;esponse_latency=2&#10;sequential_access=false&#10;size=524288&#10;system=system&#10;tag_latency=2&#10;tags=system.cpu.dcache.tags&#10;tgts_per_mshr=20&#10;warmup_percentage=0&#10;write_allocator=Null&#10;write_buffers=8&#10;writeback_clean=false">
<path fill="#bab6ae" stroke="#000000" d="M322.5341,-32C322.5341,-32 492.5341,-32 492.5341,-32 498.5341,-32 504.5341,-38 504.5341,-44 504.5341,-44 504.5341,-111 504.5341,-111 504.5341,-117 498.5341,-123 492.5341,-123 492.5341,-123 322.5341,-123 322.5341,-123 316.5341,-123 310.5341,-117 310.5341,-111 310.5341,-111 310.5341,-44 310.5341,-44 310.5341,-38 316.5341,-32 322.5341,-32"/>
<text text-anchor="middle" x="407.5341" y="-107.8" font-family="Arial" font-size="14.00" fill="#000000">dcache </text>
<text text-anchor="middle" x="407.5341" y="-92.8" font-family="Arial" font-size="14.00" fill="#000000">: L1_DCache</text>
</a>
</g>
</g>
<g id="clust28" class="cluster">
<title>cluster_system_cpu_itb_walker_cache</title>
<g id="a_clust28"><a xlink:title="addr_ranges=0:18446744073709551615&#10;assoc=2&#10;clk_domain=system.cpu_clk_domain&#10;clusivity=mostly_incl&#10;compressor=Null&#10;data_latency=2&#10;demand_mshr_reserve=1&#10;eventq_index=0&#10;is_read_only=false&#10;max_miss_count=0&#10;move_contractions=true&#10;mshrs=10&#10;power_model=&#10;power_state=system.cpu.itb_walker_cache.power_state&#10;prefetch_on_access=false&#10;prefetch_on_pf_hit=false&#10;prefetcher=Null&#10;&#13;eplace_expansions=true&#10;&#13;eplacement_policy=system.cpu.itb_walker_cache.replacement_policy&#10;&#13;esponse_latency=2&#10;sequential_access=false&#10;size=1024&#10;system=system&#10;tag_latency=2&#10;tags=system.cpu.itb_walker_cache.tags&#10;tgts_per_mshr=12&#10;warmup_percentage=0&#10;write_allocator=Null&#10;write_buffers=8&#10;writeback_clean=false">
<path fill="#bab6ae" stroke="#000000" d="M535.5341,-32C535.5341,-32 705.5341,-32 705.5341,-32 711.5341,-32 717.5341,-38 717.5341,-44 717.5341,-44 717.5341,-111 717.5341,-111 717.5341,-117 711.5341,-123 705.5341,-123 705.5341,-123 535.5341,-123 535.5341,-123 529.5341,-123 523.5341,-117 523.5341,-111 523.5341,-111 523.5341,-44 523.5341,-44 523.5341,-38 529.5341,-32 535.5341,-32"/>
<text text-anchor="middle" x="620.5341" y="-107.8" font-family="Arial" font-size="14.00" fill="#000000">itb_walker_cache </text>
<text text-anchor="middle" x="620.5341" y="-92.8" font-family="Arial" font-size="14.00" fill="#000000">: PageTableWalkerCache</text>
</a>
</g>
</g>
<g id="clust34" class="cluster">
<title>cluster_system_cpu_dtb_walker_cache</title>
<g id="a_clust34"><a xlink:title="addr_ranges=0:18446744073709551615&#10;assoc=2&#10;clk_domain=system.cpu_clk_domain&#10;clusivity=mostly_incl&#10;compressor=Null&#10;data_latency=2&#10;demand_mshr_reserve=1&#10;eventq_index=0&#10;is_read_only=false&#10;max_miss_count=0&#10;move_contractions=true&#10;mshrs=10&#10;power_model=&#10;power_state=system.cpu.dtb_walker_cache.power_state&#10;prefetch_on_access=false&#10;prefetch_on_pf_hit=false&#10;prefetcher=Null&#10;&#13;eplace_expansions=true&#10;&#13;eplacement_policy=system.cpu.dtb_walker_cache.replacement_policy&#10;&#13;esponse_latency=2&#10;sequential_access=false&#10;size=1024&#10;system=system&#10;tag_latency=2&#10;tags=system.cpu.dtb_walker_cache.tags&#10;tgts_per_mshr=12&#10;warmup_percentage=0&#10;write_allocator=Null&#10;write_buffers=8&#10;writeback_clean=false">
<path fill="#bab6ae" stroke="#000000" d="M742.5341,-32C742.5341,-32 912.5341,-32 912.5341,-32 918.5341,-32 924.5341,-38 924.5341,-44 924.5341,-44 924.5341,-111 924.5341,-111 924.5341,-117 918.5341,-123 912.5341,-123 912.5341,-123 742.5341,-123 742.5341,-123 736.5341,-123 730.5341,-117 730.5341,-111 730.5341,-111 730.5341,-44 730.5341,-44 730.5341,-38 736.5341,-32 742.5341,-32"/>
<text text-anchor="middle" x="827.5341" y="-107.8" font-family="Arial" font-size="14.00" fill="#000000">dtb_walker_cache </text>
<text text-anchor="middle" x="827.5341" y="-92.8" font-family="Arial" font-size="14.00" fill="#000000">: PageTableWalkerCache</text>
</a>
</g>
</g>
<g id="clust40" class="cluster">
<title>cluster_system_cpu_interrupts</title>
<g id="a_clust40"><a xlink:title="clk_domain=system.cpu.interrupts.clk_domain&#10;eventq_index=0&#10;int_latency=1000&#10;pio_latency=100000&#10;system=system">
<path fill="#bab6ae" stroke="#000000" d="M338.5341,-163C338.5341,-163 628.5341,-163 628.5341,-163 634.5341,-163 640.5341,-169 640.5341,-175 640.5341,-175 640.5341,-242 640.5341,-242 640.5341,-248 634.5341,-254 628.5341,-254 628.5341,-254 338.5341,-254 338.5341,-254 332.5341,-254 326.5341,-248 326.5341,-242 326.5341,-242 326.5341,-175 326.5341,-175 326.5341,-169 332.5341,-163 338.5341,-163"/>
<text text-anchor="middle" x="483.5341" y="-238.8" font-family="Arial" font-size="14.00" fill="#000000">interrupts </text>
<text text-anchor="middle" x="483.5341" y="-223.8" font-family="Arial" font-size="14.00" fill="#000000">: X86LocalApic</text>
</a>
</g>
</g>
<g id="clust46" class="cluster">
<title>cluster_system_membus</title>
<g id="a_clust46"><a xlink:title="clk_domain=system.clk_domain&#10;eventq_index=0&#10;forward_latency=4&#10;frontend_latency=3&#10;header_latency=1&#10;max_outstanding_snoops=512&#10;max_routing_table_size=512&#10;point_of_coherency=true&#10;point_of_unification=true&#10;power_model=&#10;power_state=system.membus.power_state&#10;&#13;esponse_latency=2&#10;snoop_filter=system.membus.snoop_filter&#10;snoop_response_latency=4&#10;system=system&#10;use_default_range=false&#10;width=16">
<path fill="#6f798c" stroke="#000000" d="M164.5341,-400C164.5341,-400 416.5341,-400 416.5341,-400 422.5341,-400 428.5341,-406 428.5341,-412 428.5341,-412 428.5341,-479 428.5341,-479 428.5341,-485 422.5341,-491 416.5341,-491 416.5341,-491 164.5341,-491 164.5341,-491 158.5341,-491 152.5341,-485 152.5341,-479 152.5341,-479 152.5341,-412 152.5341,-412 152.5341,-406 158.5341,-400 164.5341,-400"/>
<text text-anchor="middle" x="290.5341" y="-475.8" font-family="Arial" font-size="14.00" fill="#000000">membus </text>
<text text-anchor="middle" x="290.5341" y="-460.8" font-family="Arial" font-size="14.00" fill="#000000">: SystemXBar</text>
</a>
</g>
</g>
<g id="clust49" class="cluster">
<title>cluster_system_mem_ctrls</title>
<g id="a_clust49"><a xlink:title="clk_domain=system.clk_domain&#10;command_window=10000&#10;dram=system.mem_ctrls.dram&#10;eventq_index=0&#10;mem_sched_policy=frfcfs&#10;min_writes_per_switch=16&#10;&#10;vm=Null&#10;power_model=&#10;power_state=system.mem_ctrls.power_state&#10;qos_policy=Null&#10;qos_priorities=1&#10;qos_priority_escalation=false&#10;qos_q_policy=fifo&#10;qos_requestors= &#160;&#160;&#160;&#160;&#160;&#160;&#160;&#160;&#160;&#160;&#160;&#160;&#160;&#160;&#10;qos_syncro_scheduler=false&#10;qos_turnaround_policy=Null&#10;static_backend_latency=10000&#10;static_frontend_latency=10000&#10;system=system&#10;write_high_thresh_perc=85&#10;write_low_thresh_perc=50">
<path fill="#bab6ae" stroke="#000000" d="M1054.5341,-163C1054.5341,-163 1117.5341,-163 1117.5341,-163 1123.5341,-163 1129.5341,-169 1129.5341,-175 1129.5341,-175 1129.5341,-242 1129.5341,-242 1129.5341,-248 1123.5341,-254 1117.5341,-254 1117.5341,-254 1054.5341,-254 1054.5341,-254 1048.5341,-254 1042.5341,-248 1042.5341,-242 1042.5341,-242 1042.5341,-175 1042.5341,-175 1042.5341,-169 1048.5341,-163 1054.5341,-163"/>
<text text-anchor="middle" x="1086.0341" y="-238.8" font-family="Arial" font-size="14.00" fill="#000000">mem_ctrls </text>
<text text-anchor="middle" x="1086.0341" y="-223.8" font-family="Arial" font-size="14.00" fill="#000000">: MemCtrl</text>
</a>
</g>
</g>
<!-- system_system_port -->
<g id="node1" class="node">
<title>system_system_port</title>
<path fill="#b6b8bc" stroke="#000000" d="M182.5341,-539.5C182.5341,-539.5 254.5341,-539.5 254.5341,-539.5 260.5341,-539.5 266.5341,-545.5 266.5341,-551.5 266.5341,-551.5 266.5341,-563.5 266.5341,-563.5 266.5341,-569.5 260.5341,-575.5 254.5341,-575.5 254.5341,-575.5 182.5341,-575.5 182.5341,-575.5 176.5341,-575.5 170.5341,-569.5 170.5341,-563.5 170.5341,-563.5 170.5341,-551.5 170.5341,-551.5 170.5341,-545.5 176.5341,-539.5 182.5341,-539.5"/>
<text text-anchor="middle" x="218.5341" y="-553.8" font-family="Arial" font-size="14.00" fill="#000000">system_port</text>
</g>
<!-- system_membus_cpu_side_ports -->
<g id="node17" class="node">
<title>system_membus_cpu_side_ports</title>
<path fill="#586070" stroke="#000000" d="M172.5341,-408.5C172.5341,-408.5 264.5341,-408.5 264.5341,-408.5 270.5341,-408.5 276.5341,-414.5 276.5341,-420.5 276.5341,-420.5 276.5341,-432.5 276.5341,-432.5 276.5341,-438.5 270.5341,-444.5 264.5341,-444.5 264.5341,-444.5 172.5341,-444.5 172.5341,-444.5 166.5341,-444.5 160.5341,-438.5 160.5341,-432.5 160.5341,-432.5 160.5341,-420.5 160.5341,-420.5 160.5341,-414.5 166.5341,-408.5 172.5341,-408.5"/>
<text text-anchor="middle" x="218.5341" y="-422.8" font-family="Arial" font-size="14.00" fill="#000000">cpu_side_ports</text>
</g>
<!-- system_system_port&#45;&gt;system_membus_cpu_side_ports -->
<g id="edge1" class="edge">
<title>system_system_port&#45;&gt;system_membus_cpu_side_ports</title>
<path fill="none" stroke="#000000" d="M218.5341,-539.285C218.5341,-517.3856 218.5341,-480.3861 218.5341,-454.7663"/>
<polygon fill="#000000" stroke="#000000" points="222.0342,-454.5603 218.5341,-444.5603 215.0342,-454.5603 222.0342,-454.5603"/>
</g>
<!-- system_cpu_icache_port -->
<g id="node2" class="node">
<title>system_cpu_icache_port</title>
<path fill="#959ead" stroke="#000000" d="M120.5341,-171.5C120.5341,-171.5 188.5341,-171.5 188.5341,-171.5 194.5341,-171.5 200.5341,-177.5 200.5341,-183.5 200.5341,-183.5 200.5341,-195.5 200.5341,-195.5 200.5341,-201.5 194.5341,-207.5 188.5341,-207.5 188.5341,-207.5 120.5341,-207.5 120.5341,-207.5 114.5341,-207.5 108.5341,-201.5 108.5341,-195.5 108.5341,-195.5 108.5341,-183.5 108.5341,-183.5 108.5341,-177.5 114.5341,-171.5 120.5341,-171.5"/>
<text text-anchor="middle" x="154.5341" y="-185.8" font-family="Arial" font-size="14.00" fill="#000000">icache_port</text>
</g>
<!-- system_cpu_icache_cpu_side -->
<g id="node6" class="node">
<title>system_cpu_icache_cpu_side</title>
<path fill="#94918b" stroke="#000000" d="M230.5341,-40.5C230.5341,-40.5 282.5341,-40.5 282.5341,-40.5 288.5341,-40.5 294.5341,-46.5 294.5341,-52.5 294.5341,-52.5 294.5341,-64.5 294.5341,-64.5 294.5341,-70.5 288.5341,-76.5 282.5341,-76.5 282.5341,-76.5 230.5341,-76.5 230.5341,-76.5 224.5341,-76.5 218.5341,-70.5 218.5341,-64.5 218.5341,-64.5 218.5341,-52.5 218.5341,-52.5 218.5341,-46.5 224.5341,-40.5 230.5341,-40.5"/>
<text text-anchor="middle" x="256.5341" y="-54.8" font-family="Arial" font-size="14.00" fill="#000000">cpu_side</text>
</g>
<!-- system_cpu_icache_port&#45;&gt;system_cpu_icache_cpu_side -->
<g id="edge2" class="edge">
<title>system_cpu_icache_port&#45;&gt;system_cpu_icache_cpu_side</title>
<path fill="none" stroke="#000000" d="M170.0142,-171.3982C181.2071,-158.1627 196.5758,-139.6837 209.5341,-123 219.1772,-110.5845 229.5049,-96.5044 238.016,-84.674"/>
<polygon fill="#000000" stroke="#000000" points="240.8828,-86.6821 243.8567,-76.5132 235.1905,-82.6081 240.8828,-86.6821"/>
</g>
<!-- system_cpu_dcache_port -->
<g id="node3" class="node">
<title>system_cpu_dcache_port</title>
<path fill="#959ead" stroke="#000000" d="M230.5341,-171.5C230.5341,-171.5 304.5341,-171.5 304.5341,-171.5 310.5341,-171.5 316.5341,-177.5 316.5341,-183.5 316.5341,-183.5 316.5341,-195.5 316.5341,-195.5 316.5341,-201.5 310.5341,-207.5 304.5341,-207.5 304.5341,-207.5 230.5341,-207.5 230.5341,-207.5 224.5341,-207.5 218.5341,-201.5 218.5341,-195.5 218.5341,-195.5 218.5341,-183.5 218.5341,-183.5 218.5341,-177.5 224.5341,-171.5 230.5341,-171.5"/>
<text text-anchor="middle" x="267.5341" y="-185.8" font-family="Arial" font-size="14.00" fill="#000000">dcache_port</text>
</g>
<!-- system_cpu_dcache_cpu_side -->
<g id="node8" class="node">
<title>system_cpu_dcache_cpu_side</title>
<path fill="#94918b" stroke="#000000" d="M432.5341,-40.5C432.5341,-40.5 484.5341,-40.5 484.5341,-40.5 490.5341,-40.5 496.5341,-46.5 496.5341,-52.5 496.5341,-52.5 496.5341,-64.5 496.5341,-64.5 496.5341,-70.5 490.5341,-76.5 484.5341,-76.5 484.5341,-76.5 432.5341,-76.5 432.5341,-76.5 426.5341,-76.5 420.5341,-70.5 420.5341,-64.5 420.5341,-64.5 420.5341,-52.5 420.5341,-52.5 420.5341,-46.5 426.5341,-40.5 432.5341,-40.5"/>
<text text-anchor="middle" x="458.5341" y="-54.8" font-family="Arial" font-size="14.00" fill="#000000">cpu_side</text>
</g>
<!-- system_cpu_dcache_port&#45;&gt;system_cpu_dcache_cpu_side -->
<g id="edge3" class="edge">
<title>system_cpu_dcache_port&#45;&gt;system_cpu_dcache_cpu_side</title>
<path fill="none" stroke="#000000" d="M286.8779,-171.4969C296.882,-163.0156 309.6708,-153.3834 322.5341,-147 359.2323,-128.7885 377.7731,-146.2082 411.5341,-123 425.3568,-113.4978 436.6168,-98.5584 444.6467,-85.4493"/>
<polygon fill="#000000" stroke="#000000" points="447.6987,-87.1631 449.6816,-76.7554 441.6412,-83.6549 447.6987,-87.1631"/>
</g>
<!-- system_cpu_mmu_itb_walker_port -->
<g id="node4" class="node">
<title>system_cpu_mmu_itb_walker_port</title>
<path fill="#6a6863" stroke="#000000" d="M684.5341,-171.5C684.5341,-171.5 714.5341,-171.5 714.5341,-171.5 720.5341,-171.5 726.5341,-177.5 726.5341,-183.5 726.5341,-183.5 726.5341,-195.5 726.5341,-195.5 726.5341,-201.5 720.5341,-207.5 714.5341,-207.5 714.5341,-207.5 684.5341,-207.5 684.5341,-207.5 678.5341,-207.5 672.5341,-201.5 672.5341,-195.5 672.5341,-195.5 672.5341,-183.5 672.5341,-183.5 672.5341,-177.5 678.5341,-171.5 684.5341,-171.5"/>
<text text-anchor="middle" x="699.5341" y="-185.8" font-family="Arial" font-size="14.00" fill="#000000">port</text>
</g>
<!-- system_cpu_itb_walker_cache_cpu_side -->
<g id="node10" class="node">
<title>system_cpu_itb_walker_cache_cpu_side</title>
<path fill="#94918b" stroke="#000000" d="M645.5341,-40.5C645.5341,-40.5 697.5341,-40.5 697.5341,-40.5 703.5341,-40.5 709.5341,-46.5 709.5341,-52.5 709.5341,-52.5 709.5341,-64.5 709.5341,-64.5 709.5341,-70.5 703.5341,-76.5 697.5341,-76.5 697.5341,-76.5 645.5341,-76.5 645.5341,-76.5 639.5341,-76.5 633.5341,-70.5 633.5341,-64.5 633.5341,-64.5 633.5341,-52.5 633.5341,-52.5 633.5341,-46.5 639.5341,-40.5 645.5341,-40.5"/>
<text text-anchor="middle" x="671.5341" y="-54.8" font-family="Arial" font-size="14.00" fill="#000000">cpu_side</text>
</g>
<!-- system_cpu_mmu_itb_walker_port&#45;&gt;system_cpu_itb_walker_cache_cpu_side -->
<g id="edge4" class="edge">
<title>system_cpu_mmu_itb_walker_port&#45;&gt;system_cpu_itb_walker_cache_cpu_side</title>
<path fill="none" stroke="#000000" d="M695.6408,-171.285C690.9391,-149.2878 682.981,-112.0554 677.5025,-86.4238"/>
<polygon fill="#000000" stroke="#000000" points="680.9072,-85.6078 675.3943,-76.5603 674.0618,-87.071 680.9072,-85.6078"/>
</g>
<!-- system_cpu_mmu_dtb_walker_port -->
<g id="node5" class="node">
<title>system_cpu_mmu_dtb_walker_port</title>
<path fill="#6a6863" stroke="#000000" d="M869.5341,-171.5C869.5341,-171.5 899.5341,-171.5 899.5341,-171.5 905.5341,-171.5 911.5341,-177.5 911.5341,-183.5 911.5341,-183.5 911.5341,-195.5 911.5341,-195.5 911.5341,-201.5 905.5341,-207.5 899.5341,-207.5 899.5341,-207.5 869.5341,-207.5 869.5341,-207.5 863.5341,-207.5 857.5341,-201.5 857.5341,-195.5 857.5341,-195.5 857.5341,-183.5 857.5341,-183.5 857.5341,-177.5 863.5341,-171.5 869.5341,-171.5"/>
<text text-anchor="middle" x="884.5341" y="-185.8" font-family="Arial" font-size="14.00" fill="#000000">port</text>
</g>
<!-- system_cpu_dtb_walker_cache_cpu_side -->
<g id="node12" class="node">
<title>system_cpu_dtb_walker_cache_cpu_side</title>
<path fill="#94918b" stroke="#000000" d="M852.5341,-40.5C852.5341,-40.5 904.5341,-40.5 904.5341,-40.5 910.5341,-40.5 916.5341,-46.5 916.5341,-52.5 916.5341,-52.5 916.5341,-64.5 916.5341,-64.5 916.5341,-70.5 910.5341,-76.5 904.5341,-76.5 904.5341,-76.5 852.5341,-76.5 852.5341,-76.5 846.5341,-76.5 840.5341,-70.5 840.5341,-64.5 840.5341,-64.5 840.5341,-52.5 840.5341,-52.5 840.5341,-46.5 846.5341,-40.5 852.5341,-40.5"/>
<text text-anchor="middle" x="878.5341" y="-54.8" font-family="Arial" font-size="14.00" fill="#000000">cpu_side</text>
</g>
<!-- system_cpu_mmu_dtb_walker_port&#45;&gt;system_cpu_dtb_walker_cache_cpu_side -->
<g id="edge5" class="edge">
<title>system_cpu_mmu_dtb_walker_port&#45;&gt;system_cpu_dtb_walker_cache_cpu_side</title>
<path fill="none" stroke="#000000" d="M883.6998,-171.285C882.6968,-149.3856 881.0021,-112.3861 879.8287,-86.7663"/>
<polygon fill="#000000" stroke="#000000" points="883.3152,-86.3896 879.3612,-76.5603 876.3225,-86.71 883.3152,-86.3896"/>
</g>
<!-- system_cpu_icache_mem_side -->
<g id="node7" class="node">
<title>system_cpu_icache_mem_side</title>
<path fill="#94918b" stroke="#000000" d="M128.5341,-40.5C128.5341,-40.5 188.5341,-40.5 188.5341,-40.5 194.5341,-40.5 200.5341,-46.5 200.5341,-52.5 200.5341,-52.5 200.5341,-64.5 200.5341,-64.5 200.5341,-70.5 194.5341,-76.5 188.5341,-76.5 188.5341,-76.5 128.5341,-76.5 128.5341,-76.5 122.5341,-76.5 116.5341,-70.5 116.5341,-64.5 116.5341,-64.5 116.5341,-52.5 116.5341,-52.5 116.5341,-46.5 122.5341,-40.5 128.5341,-40.5"/>
<text text-anchor="middle" x="158.5341" y="-54.8" font-family="Arial" font-size="14.00" fill="#000000">mem_side</text>
</g>
<!-- system_cpu_dcache_mem_side -->
<g id="node9" class="node">
<title>system_cpu_dcache_mem_side</title>
<path fill="#94918b" stroke="#000000" d="M330.5341,-40.5C330.5341,-40.5 390.5341,-40.5 390.5341,-40.5 396.5341,-40.5 402.5341,-46.5 402.5341,-52.5 402.5341,-52.5 402.5341,-64.5 402.5341,-64.5 402.5341,-70.5 396.5341,-76.5 390.5341,-76.5 390.5341,-76.5 330.5341,-76.5 330.5341,-76.5 324.5341,-76.5 318.5341,-70.5 318.5341,-64.5 318.5341,-64.5 318.5341,-52.5 318.5341,-52.5 318.5341,-46.5 324.5341,-40.5 330.5341,-40.5"/>
<text text-anchor="middle" x="360.5341" y="-54.8" font-family="Arial" font-size="14.00" fill="#000000">mem_side</text>
</g>
<!-- system_cpu_itb_walker_cache_mem_side -->
<g id="node11" class="node">
<title>system_cpu_itb_walker_cache_mem_side</title>
<path fill="#94918b" stroke="#000000" d="M543.5341,-40.5C543.5341,-40.5 603.5341,-40.5 603.5341,-40.5 609.5341,-40.5 615.5341,-46.5 615.5341,-52.5 615.5341,-52.5 615.5341,-64.5 615.5341,-64.5 615.5341,-70.5 609.5341,-76.5 603.5341,-76.5 603.5341,-76.5 543.5341,-76.5 543.5341,-76.5 537.5341,-76.5 531.5341,-70.5 531.5341,-64.5 531.5341,-64.5 531.5341,-52.5 531.5341,-52.5 531.5341,-46.5 537.5341,-40.5 543.5341,-40.5"/>
<text text-anchor="middle" x="573.5341" y="-54.8" font-family="Arial" font-size="14.00" fill="#000000">mem_side</text>
</g>
<!-- system_cpu_dtb_walker_cache_mem_side -->
<g id="node13" class="node">
<title>system_cpu_dtb_walker_cache_mem_side</title>
<path fill="#94918b" stroke="#000000" d="M750.5341,-40.5C750.5341,-40.5 810.5341,-40.5 810.5341,-40.5 816.5341,-40.5 822.5341,-46.5 822.5341,-52.5 822.5341,-52.5 822.5341,-64.5 822.5341,-64.5 822.5341,-70.5 816.5341,-76.5 810.5341,-76.5 810.5341,-76.5 750.5341,-76.5 750.5341,-76.5 744.5341,-76.5 738.5341,-70.5 738.5341,-64.5 738.5341,-64.5 738.5341,-52.5 738.5341,-52.5 738.5341,-46.5 744.5341,-40.5 750.5341,-40.5"/>
<text text-anchor="middle" x="780.5341" y="-54.8" font-family="Arial" font-size="14.00" fill="#000000">mem_side</text>
</g>
<!-- system_cpu_interrupts_int_requestor -->
<g id="node14" class="node">
<title>system_cpu_interrupts_int_requestor</title>
<path fill="#94918b" stroke="#000000" d="M347.0341,-171.5C347.0341,-171.5 424.0341,-171.5 424.0341,-171.5 430.0341,-171.5 436.0341,-177.5 436.0341,-183.5 436.0341,-183.5 436.0341,-195.5 436.0341,-195.5 436.0341,-201.5 430.0341,-207.5 424.0341,-207.5 424.0341,-207.5 347.0341,-207.5 347.0341,-207.5 341.0341,-207.5 335.0341,-201.5 335.0341,-195.5 335.0341,-195.5 335.0341,-183.5 335.0341,-183.5 335.0341,-177.5 341.0341,-171.5 347.0341,-171.5"/>
<text text-anchor="middle" x="385.5341" y="-185.8" font-family="Arial" font-size="14.00" fill="#000000">int_requestor</text>
</g>
<!-- system_cpu_interrupts_int_responder -->
<g id="node15" class="node">
<title>system_cpu_interrupts_int_responder</title>
<path fill="#94918b" stroke="#000000" d="M538.5341,-171.5C538.5341,-171.5 620.5341,-171.5 620.5341,-171.5 626.5341,-171.5 632.5341,-177.5 632.5341,-183.5 632.5341,-183.5 632.5341,-195.5 632.5341,-195.5 632.5341,-201.5 626.5341,-207.5 620.5341,-207.5 620.5341,-207.5 538.5341,-207.5 538.5341,-207.5 532.5341,-207.5 526.5341,-201.5 526.5341,-195.5 526.5341,-195.5 526.5341,-183.5 526.5341,-183.5 526.5341,-177.5 532.5341,-171.5 538.5341,-171.5"/>
<text text-anchor="middle" x="579.5341" y="-185.8" font-family="Arial" font-size="14.00" fill="#000000">int_responder</text>
</g>
<!-- system_cpu_interrupts_pio -->
<g id="node16" class="node">
<title>system_cpu_interrupts_pio</title>
<path fill="#94918b" stroke="#000000" d="M466.5341,-171.5C466.5341,-171.5 496.5341,-171.5 496.5341,-171.5 502.5341,-171.5 508.5341,-177.5 508.5341,-183.5 508.5341,-183.5 508.5341,-195.5 508.5341,-195.5 508.5341,-201.5 502.5341,-207.5 496.5341,-207.5 496.5341,-207.5 466.5341,-207.5 466.5341,-207.5 460.5341,-207.5 454.5341,-201.5 454.5341,-195.5 454.5341,-195.5 454.5341,-183.5 454.5341,-183.5 454.5341,-177.5 460.5341,-171.5 466.5341,-171.5"/>
<text text-anchor="middle" x="481.5341" y="-185.8" font-family="Arial" font-size="14.00" fill="#000000">pio</text>
</g>
<!-- system_membus_cpu_side_ports&#45;&gt;system_cpu_icache_mem_side -->
<g id="edge6" class="edge">
<title>system_membus_cpu_side_ports&#45;&gt;system_cpu_icache_mem_side</title>
<path fill="none" stroke="#000000" d="M150.2497,-421.7288C107.4864,-417.1569 58.0139,-408.415 44.5341,-392 -24.5701,-307.8489 -3.351,-244.7947 44.5341,-147 60.1803,-115.0461 93.5443,-91.3115 120.1564,-76.5095"/>
<polygon fill="#000000" stroke="#000000" points="150.0827,-425.2296 160.3832,-422.7497 150.7844,-418.2648 150.0827,-425.2296"/>
</g>
<!-- system_membus_cpu_side_ports&#45;&gt;system_cpu_dcache_mem_side -->
<g id="edge7" class="edge">
<title>system_membus_cpu_side_ports&#45;&gt;system_cpu_dcache_mem_side</title>
<path fill="none" stroke="#000000" d="M150.4939,-419.6229C114.527,-414.4314 75.5702,-405.782 64.5341,-392 30.5032,-349.5018 27.985,-187.353 64.5341,-147 100.8126,-106.9456 258.7579,-148.2574 306.5341,-123 326.1589,-112.6251 341.5163,-91.8316 350.7554,-76.6492"/>
<polygon fill="#000000" stroke="#000000" points="150.1513,-423.1085 160.5335,-420.9969 151.1005,-416.1732 150.1513,-423.1085"/>
</g>
<!-- system_membus_cpu_side_ports&#45;&gt;system_cpu_itb_walker_cache_mem_side -->
<g id="edge8" class="edge">
<title>system_membus_cpu_side_ports&#45;&gt;system_cpu_itb_walker_cache_mem_side</title>
<path fill="none" stroke="#000000" d="M150.3396,-416.8176C121.7438,-411.2311 93.1243,-403.082 84.5341,-392 51.1789,-348.9694 47.1397,-186.5709 84.5341,-147 116.9434,-112.7042 465.4301,-142.1994 508.5341,-123 530.7531,-113.1031 549.631,-91.9972 561.225,-76.6156"/>
<polygon fill="#000000" stroke="#000000" points="149.9498,-420.3049 160.4204,-418.6874 151.2264,-413.4223 149.9498,-420.3049"/>
</g>
<!-- system_membus_cpu_side_ports&#45;&gt;system_cpu_dtb_walker_cache_mem_side -->
<g id="edge9" class="edge">
<title>system_membus_cpu_side_ports&#45;&gt;system_cpu_dtb_walker_cache_mem_side</title>
<path fill="none" stroke="#000000" d="M150.3207,-414.6925C126.3973,-409.0538 103.6824,-401.4502 96.5341,-392 80.1115,-370.2894 77.658,-166.6149 96.5341,-147 144.7228,-96.9252 658.4855,-152.2321 721.5341,-123 742.5994,-113.2332 759.5595,-92.1018 769.797,-76.6787"/>
<polygon fill="#000000" stroke="#000000" points="149.7174,-418.1439 160.2403,-416.9109 151.2452,-411.3127 149.7174,-418.1439"/>
</g>
<!-- system_membus_cpu_side_ports&#45;&gt;system_cpu_interrupts_int_requestor -->
<g id="edge10" class="edge">
<title>system_membus_cpu_side_ports&#45;&gt;system_cpu_interrupts_int_requestor</title>
<path fill="none" stroke="#000000" d="M270.7162,-404.9864C276.0126,-403.1587 281.3497,-401.4559 286.5341,-400 306.0911,-394.508 316.5752,-405.7431 331.5341,-392 384.9874,-342.8909 387.9231,-247.3439 386.6152,-207.561"/>
<polygon fill="#000000" stroke="#000000" points="269.4938,-401.7065 261.2688,-408.3847 271.8632,-408.2933 269.4938,-401.7065"/>
</g>
<!-- system_membus_mem_side_ports -->
<g id="node18" class="node">
<title>system_membus_mem_side_ports</title>
<path fill="#586070" stroke="#000000" d="M307.0341,-408.5C307.0341,-408.5 408.0341,-408.5 408.0341,-408.5 414.0341,-408.5 420.0341,-414.5 420.0341,-420.5 420.0341,-420.5 420.0341,-432.5 420.0341,-432.5 420.0341,-438.5 414.0341,-444.5 408.0341,-444.5 408.0341,-444.5 307.0341,-444.5 307.0341,-444.5 301.0341,-444.5 295.0341,-438.5 295.0341,-432.5 295.0341,-432.5 295.0341,-420.5 295.0341,-420.5 295.0341,-414.5 301.0341,-408.5 307.0341,-408.5"/>
<text text-anchor="middle" x="357.5341" y="-422.8" font-family="Arial" font-size="14.00" fill="#000000">mem_side_ports</text>
</g>
<!-- system_membus_mem_side_ports&#45;&gt;system_cpu_interrupts_int_responder -->
<g id="edge12" class="edge">
<title>system_membus_mem_side_ports&#45;&gt;system_cpu_interrupts_int_responder</title>
<path fill="none" stroke="#000000" d="M420.2408,-419.5426C458.7114,-414.0578 503.2518,-405.1205 517.5341,-392 567.3113,-346.2716 577.5695,-261.7892 579.3977,-217.7966"/>
<polygon fill="#000000" stroke="#000000" points="582.8965,-217.8846 579.6954,-207.7849 575.8996,-217.6765 582.8965,-217.8846"/>
</g>
<!-- system_membus_mem_side_ports&#45;&gt;system_cpu_interrupts_pio -->
<g id="edge11" class="edge">
<title>system_membus_mem_side_ports&#45;&gt;system_cpu_interrupts_pio</title>
<path fill="none" stroke="#000000" d="M420.1044,-411.3199C429.7719,-406.5344 438.7729,-400.2498 445.5341,-392 486.7608,-341.6963 487.5462,-260.4624 484.568,-217.7775"/>
<polygon fill="#000000" stroke="#000000" points="488.0352,-217.2329 483.7289,-207.5527 481.0586,-217.8055 488.0352,-217.2329"/>
</g>
<!-- system_mem_ctrls_port -->
<g id="node19" class="node">
<title>system_mem_ctrls_port</title>
<path fill="#94918b" stroke="#000000" d="M1062.5341,-171.5C1062.5341,-171.5 1092.5341,-171.5 1092.5341,-171.5 1098.5341,-171.5 1104.5341,-177.5 1104.5341,-183.5 1104.5341,-183.5 1104.5341,-195.5 1104.5341,-195.5 1104.5341,-201.5 1098.5341,-207.5 1092.5341,-207.5 1092.5341,-207.5 1062.5341,-207.5 1062.5341,-207.5 1056.5341,-207.5 1050.5341,-201.5 1050.5341,-195.5 1050.5341,-195.5 1050.5341,-183.5 1050.5341,-183.5 1050.5341,-177.5 1056.5341,-171.5 1062.5341,-171.5"/>
<text text-anchor="middle" x="1077.5341" y="-185.8" font-family="Arial" font-size="14.00" fill="#000000">port</text>
</g>
<!-- system_membus_mem_side_ports&#45;&gt;system_mem_ctrls_port -->
<g id="edge13" class="edge">
<title>system_membus_mem_side_ports&#45;&gt;system_mem_ctrls_port</title>
<path fill="none" stroke="#000000" d="M420.2743,-425.1317C580.0418,-421.391 991.3139,-410.0518 1014.5341,-392 1068.3754,-350.1426 1077.2851,-262.8444 1078.0964,-217.7753"/>
<polygon fill="#000000" stroke="#000000" points="1081.5975,-217.5567 1078.1525,-207.5376 1074.5976,-217.5182 1081.5975,-217.5567"/>
</g>
</g>
</svg>
